<svg width="650" height="650" viewBox="0 0 650 650" fill="none" xmlns="http://www.w3.org/2000/svg">
<g clip-path="url(#clip0)">
<path d="M310.484 649L317.742 509.806C317.847 507.517 317.438 505.234 316.544 503.124C315.65 501.014 314.295 499.131 312.577 497.614C310.859 496.098 308.823 494.986 306.618 494.36C304.414 493.735 302.097 493.612 299.839 494L161.29 518.355L180 466.742C180.759 464.688 180.856 462.448 180.278 460.337C179.699 458.225 178.474 456.348 176.774 454.968L25 332.065L59.1935 316.097C61.5029 315.005 63.3344 313.109 64.3442 310.762C65.3539 308.416 65.4724 305.782 64.6774 303.355L34.6774 211.097L122.097 229.645C124.465 230.139 126.931 229.798 129.077 228.681C131.223 227.564 132.917 225.739 133.871 223.516L150.806 183.677L219.032 256.903C220.592 258.549 222.644 259.644 224.879 260.025C227.114 260.406 229.412 260.052 231.429 259.016C233.446 257.981 235.073 256.319 236.066 254.28C237.059 252.242 237.364 249.936 236.935 247.71L204.032 78.0323L256.774 108.516C258.012 109.242 259.387 109.706 260.811 109.879C262.236 110.052 263.681 109.93 265.057 109.522C266.433 109.114 267.711 108.427 268.811 107.505C269.911 106.583 270.81 105.445 271.452 104.161L325 -1L378.548 104.161C379.19 105.445 380.089 106.583 381.189 107.505C382.289 108.427 383.567 109.114 384.943 109.522C386.319 109.93 387.764 110.052 389.189 109.879C390.613 109.706 391.988 109.242 393.226 108.516L445.968 78.0323L413.065 247.71C412.636 249.936 412.941 252.242 413.934 254.28C414.927 256.319 416.553 257.981 418.571 259.016C420.588 260.052 422.886 260.406 425.121 260.025C427.356 259.644 429.408 258.549 430.968 256.903L499.194 183.677L516.129 223.516C517.083 225.739 518.777 227.564 520.923 228.681C523.069 229.798 525.535 230.139 527.903 229.645L615.323 211.097L585.323 303.355C584.528 305.782 584.646 308.416 585.656 310.762C586.666 313.109 588.497 315.005 590.806 316.097L625 332.065L473.226 454.968C471.526 456.348 470.301 458.225 469.722 460.337C469.144 462.448 469.241 464.688 470 466.742L488.71 518.355L350.161 494C347.903 493.612 345.586 493.735 343.382 494.36C341.177 494.986 339.141 496.098 337.423 497.614C335.705 499.131 334.35 501.014 333.456 503.124C332.562 505.234 332.153 507.517 332.258 509.806L339.516 649H310.484Z" fill="#B12020"/>
<path d="M118 408H532.758V497.797L324 597L118 497.797V408Z" fill="#B12020"/>
<path d="M230.015 437H238.655C240.841 437 242.588 437.573 243.895 438.72C245.228 439.867 245.895 441.587 245.895 443.88C245.895 444.92 245.721 445.92 245.375 446.88C245.028 447.813 244.321 448.64 243.255 449.36L243.215 449.44V449.48C244.388 450.013 245.361 450.88 246.135 452.08C246.935 453.253 247.335 454.787 247.335 456.68C247.335 458.947 246.695 460.907 245.415 462.56C244.135 464.187 242.028 465 239.095 465H230.015V437ZM238.055 448.48C239.548 448.48 240.695 448.12 241.495 447.4C242.321 446.68 242.735 445.573 242.735 444.08C242.735 442.48 242.308 441.373 241.455 440.76C240.601 440.12 239.441 439.8 237.975 439.8H232.895V448.48H238.055ZM238.455 462.32C240.241 462.32 241.628 461.907 242.615 461.08C243.628 460.253 244.135 458.747 244.135 456.56C244.135 454.8 243.628 453.48 242.615 452.6C241.628 451.72 240.428 451.28 239.015 451.28H232.895V462.32H238.455ZM265.61 465C262.73 465.293 260.65 465.44 259.37 465.44C256.57 465.44 254.344 464.92 252.69 463.88C251.037 462.84 250.21 460.96 250.21 458.24V454.92C250.21 452.28 251.13 450.507 252.97 449.6C253.85 449.173 254.93 448.96 256.21 448.96C257.384 448.96 258.57 449.147 259.77 449.52C260.97 449.867 261.957 450.32 262.73 450.88C262.73 448.133 260.85 446.76 257.09 446.76L257.29 444.64C259.85 444.64 261.73 445.053 262.93 445.88C264.157 446.68 264.904 447.64 265.17 448.76C265.464 449.88 265.61 451.32 265.61 453.08V465ZM262.73 453.48C261.797 453.027 260.77 452.627 259.65 452.28C258.53 451.907 257.504 451.72 256.57 451.72C254.25 451.72 253.09 452.867 253.09 455.16V458.28C253.09 461.32 255.17 462.84 259.33 462.84C260.157 462.84 261.29 462.747 262.73 462.56V453.48ZM269.491 444.96H272.291V446C273.544 445.067 275.024 444.6 276.731 444.6C277.584 444.6 278.624 444.733 279.851 445L279.131 447.72C278.331 447.427 277.491 447.28 276.611 447.28C275.437 447.28 274.437 447.533 273.611 448.04C272.784 448.52 272.371 449.227 272.371 450.16V465H269.491V444.96ZM308.931 465C306.051 465.293 303.971 465.44 302.691 465.44C299.891 465.44 297.664 464.92 296.011 463.88C294.357 462.84 293.531 460.96 293.531 458.24V454.92C293.531 452.28 294.451 450.507 296.291 449.6C297.171 449.173 298.251 448.96 299.531 448.96C300.704 448.96 301.891 449.147 303.091 449.52C304.291 449.867 305.277 450.32 306.051 450.88C306.051 448.133 304.171 446.76 300.411 446.76L300.611 444.64C303.171 444.64 305.051 445.053 306.251 445.88C307.477 446.68 308.224 447.64 308.491 448.76C308.784 449.88 308.931 451.32 308.931 453.08V465ZM306.051 453.48C305.117 453.027 304.091 452.627 302.971 452.28C301.851 451.907 300.824 451.72 299.891 451.72C297.571 451.72 296.411 452.867 296.411 455.16V458.28C296.411 461.32 298.491 462.84 302.651 462.84C303.477 462.84 304.611 462.747 306.051 462.56V453.48ZM324.811 451.6C324.811 450.16 324.371 449.093 323.491 448.4C322.638 447.68 321.544 447.32 320.211 447.32C319.464 447.32 318.704 447.427 317.931 447.64C317.158 447.827 316.451 448.107 315.811 448.48V465H312.931V444.96H315.651L315.691 446C316.304 445.573 317.038 445.24 317.891 445C318.771 444.76 319.691 444.64 320.651 444.64C322.038 444.64 323.251 444.88 324.291 445.36C325.358 445.84 326.184 446.56 326.771 447.52C327.384 448.48 327.691 449.693 327.691 451.16V465H324.811V451.6ZM333.491 451.16C333.491 448.36 334.624 446.44 336.891 445.4C337.984 444.893 339.264 444.64 340.731 444.64C341.638 444.64 342.504 444.747 343.331 444.96C344.158 445.147 344.838 445.413 345.371 445.76V437H348.251V465L346.051 465.2C344.318 465.387 342.958 465.48 341.971 465.48C340.984 465.48 340.051 465.387 339.171 465.2C338.318 465.013 337.464 464.707 336.611 464.28C335.651 463.8 334.891 463.093 334.331 462.16C333.771 461.227 333.491 460.08 333.491 458.72V451.16ZM345.371 448.52C344.731 448.173 344.011 447.893 343.211 447.68C342.438 447.467 341.678 447.36 340.931 447.36C339.571 447.36 338.464 447.707 337.611 448.4C336.758 449.093 336.331 450.2 336.331 451.72V458.84C336.331 460.227 336.851 461.24 337.891 461.88C338.931 462.493 340.304 462.8 342.011 462.8C343.024 462.8 344.144 462.693 345.371 462.48V448.52ZM376.961 463.76C375.681 464.853 373.974 465.4 371.841 465.4C370.347 465.4 368.961 465.12 367.681 464.56C366.401 464 365.361 463.12 364.561 461.92C363.787 460.72 363.401 459.227 363.401 457.44V444.88C363.401 443.013 363.694 441.52 364.281 440.4C364.894 439.253 365.761 438.333 366.881 437.64C368.054 436.973 369.494 436.64 371.201 436.64C373.281 436.64 375.161 437.08 376.841 437.96L376.001 440.2C374.561 439.667 373.187 439.4 371.881 439.4C368.147 439.4 366.281 441.107 366.281 444.52V457.52C366.281 459.147 366.787 460.4 367.801 461.28C368.814 462.133 370.147 462.56 371.801 462.56C373.347 462.56 374.601 462.12 375.561 461.24C376.547 460.36 377.041 459.133 377.041 457.56V455.8H374.521L373.561 453H379.841V465H377.441L376.961 463.76ZM384.725 444.96H387.525V446C388.778 445.067 390.258 444.6 391.965 444.6C392.818 444.6 393.858 444.733 395.085 445L394.365 447.72C393.565 447.427 392.725 447.28 391.845 447.28C390.672 447.28 389.672 447.533 388.845 448.04C388.018 448.52 387.605 449.227 387.605 450.16V465H384.725V444.96ZM399.859 439.88C399.405 439.88 399.005 439.72 398.659 439.4C398.339 439.053 398.179 438.667 398.179 438.24C398.179 437.813 398.339 437.44 398.659 437.12C399.005 436.773 399.405 436.6 399.859 436.6C400.285 436.6 400.659 436.76 400.979 437.08C401.299 437.4 401.459 437.787 401.459 438.24C401.459 438.693 401.299 439.08 400.979 439.4C400.659 439.72 400.285 439.88 399.859 439.88ZM398.339 444.96H401.219V465H398.339V444.96ZM407.788 437H410.668V465H407.788V437ZM417.007 437H419.887V465H417.007V437Z" fill="white"/>
<path d="M157.651 381.073C156.966 381.369 156.351 381.602 155.807 381.77L145.434 384.977L147.833 398.8L143.637 400.098L136.334 358.027L150.495 353.648C154.225 352.495 157.215 352.858 159.466 354.738C161.755 356.605 163.244 359.523 163.932 363.489C164.454 366.494 164.606 369.255 164.387 371.771C164.201 374.235 163.177 376.472 161.316 378.483L168.988 392.26L164.676 393.593L157.651 381.073ZM154.552 377.725C156.65 377.076 158.107 376.035 158.922 374.601C159.731 373.126 160.126 371.632 160.109 370.117C160.124 368.551 159.971 366.846 159.651 365.003C158.58 358.832 155.558 356.516 150.585 358.054L141.26 360.937L144.703 380.77L154.552 377.725Z" fill="#FFE600"/>
<path d="M193.832 383.547C192.544 384.833 191.028 385.948 189.283 386.891C187.538 387.834 185.759 388.535 183.946 388.995C181.029 389.734 178.6 389.599 176.66 388.589C174.754 387.529 173.593 385.53 173.177 382.59L171.423 370.209C170.961 366.948 171.587 364.161 173.302 361.849C175.055 359.528 177.568 357.952 180.84 357.123C184.112 356.293 186.783 356.554 188.853 357.906C190.956 359.208 192.233 361.45 192.684 364.631L193.856 372.905L176.955 378.129L177.4 381.269C177.639 382.961 178.332 384.099 179.476 384.685C180.621 385.27 182.08 385.338 183.854 384.889C186.416 384.239 189.042 382.739 191.731 380.389L193.832 383.547ZM188.333 365.483C188.031 363.349 187.167 362.004 185.74 361.448C184.308 360.852 182.843 360.744 181.345 361.124C179.374 361.623 177.855 362.572 176.787 363.969C175.758 365.356 175.392 367.096 175.689 369.19L176.373 374.022L188.992 370.134L188.333 365.483Z" fill="#FFE600"/>
<path d="M201.32 362.415C200.841 358.172 202.207 354.92 205.418 352.661C206.966 351.563 208.836 350.793 211.028 350.35C212.384 350.077 213.698 349.977 214.97 350.051C216.237 350.084 217.299 350.283 218.156 350.648L216.659 337.373L220.964 336.504L225.748 378.935L222.494 379.902C219.935 380.708 217.918 381.259 216.443 381.557C214.968 381.855 213.557 381.995 212.209 381.978C210.902 381.952 209.574 381.745 208.225 381.356C206.708 380.918 205.451 380.076 204.455 378.831C203.458 377.586 202.844 375.932 202.611 373.871L201.32 362.415ZM218.627 354.83C217.612 354.498 216.487 354.291 215.255 354.209C214.063 354.119 212.908 354.187 211.792 354.412C209.759 354.822 208.164 355.681 207.007 356.99C205.85 358.298 205.401 360.103 205.661 362.407L206.877 373.196C207.114 375.298 208.065 376.677 209.729 377.333C211.388 377.948 213.493 377.999 216.045 377.484C217.559 377.178 219.215 376.679 221.013 375.985L218.627 354.83Z" fill="#FFE600"/>
<path d="M249.051 332.286L253.413 331.775L255.946 370.427L273.455 368.372L273.715 372.329L251.844 374.895L249.051 332.286Z" fill="#FFE600"/>
<path d="M296.713 368.61C295.289 369.646 293.653 370.472 291.806 371.089C289.958 371.705 288.101 372.078 286.235 372.207C283.233 372.414 280.811 371.848 278.97 370.509C277.167 369.126 276.209 366.951 276.094 363.984L275.612 351.489C275.485 348.197 276.4 345.567 278.358 343.598C280.357 341.627 283.04 340.524 286.407 340.292C289.774 340.059 292.426 340.793 294.363 342.492C296.339 344.149 297.389 346.582 297.513 349.792L297.835 358.143L280.344 360.268L280.466 363.438C280.532 365.145 281.109 366.388 282.197 367.169C283.284 367.949 284.741 368.276 286.567 368.15C289.204 367.968 291.992 366.96 294.932 365.128L296.713 368.61ZM293.061 349.855C292.978 347.702 292.249 346.224 290.876 345.422C289.501 344.58 288.043 344.213 286.501 344.319C284.473 344.459 282.851 345.121 281.636 346.305C280.461 347.487 279.914 349.134 279.996 351.247L280.184 356.123L293.242 354.549L293.061 349.855Z" fill="#FFE600"/>
<path d="M327.246 369.958C322.86 370.495 319.691 370.783 317.74 370.822C313.471 370.909 310.067 370.184 307.528 368.65C304.989 367.115 303.696 364.273 303.649 360.126L303.592 355.063C303.547 351.037 304.919 348.305 307.709 346.865C309.043 346.188 310.686 345.829 312.637 345.789C314.426 345.753 316.239 346.001 318.075 346.533C319.911 347.025 321.423 347.686 322.612 348.516C322.564 344.327 319.674 342.291 313.941 342.407L314.21 339.168C318.113 339.089 320.986 339.662 322.83 340.885C324.714 342.067 325.869 343.508 326.295 345.208C326.762 346.906 327.01 349.098 327.041 351.782L327.246 369.958ZM322.656 352.48C321.226 351.818 319.653 351.24 317.94 350.746C316.226 350.211 314.657 349.958 313.234 349.987C309.697 350.059 307.948 351.843 307.987 355.34L308.041 360.098C308.094 364.733 311.291 366.987 317.634 366.859C318.894 366.833 320.621 366.656 322.813 366.327L322.656 352.48Z" fill="#FFE600"/>
<path d="M334.803 336.704C334.847 333.248 335.752 330.767 337.52 329.261C339.288 327.715 341.473 326.971 344.075 327.029C344.645 327.042 345.457 327.142 346.512 327.328L345.792 331.217C345.061 331.119 344.553 331.067 344.269 331.06C342.724 331.026 341.498 331.486 340.591 332.442C339.726 333.358 339.28 334.812 339.255 336.805L339.218 339.732L345.683 339.878L344.167 343.993L339.166 343.88L338.834 370.291L334.382 370.191L334.803 336.704Z" fill="#FFE600"/>
<path d="M375.977 329.563L389.084 330.912C392.401 331.254 395 332.4 396.882 334.35C398.804 336.304 399.665 339.027 399.464 342.518C399.373 344.102 399.022 345.597 398.412 347.004C397.805 348.371 396.66 349.519 394.979 350.449L394.912 350.564L394.908 350.625C396.641 351.621 398.042 353.092 399.11 355.04C400.221 356.951 400.693 359.348 400.527 362.231C400.329 365.682 399.186 368.566 397.1 370.883C395.015 373.16 391.748 374.069 387.299 373.611L373.525 372.192L375.977 329.563ZM387.168 348.297C389.433 348.53 391.204 348.161 392.481 347.19C393.798 346.223 394.522 344.603 394.653 342.329C394.793 339.893 394.243 338.141 393.002 337.074C391.764 335.967 390.032 335.298 387.807 335.069L380.101 334.275L379.34 347.491L387.168 348.297ZM386.563 369.43C389.273 369.71 391.413 369.297 392.982 368.192C394.591 367.092 395.492 364.877 395.684 361.548C395.838 358.869 395.185 356.78 393.725 355.282C392.305 353.788 390.523 352.93 388.379 352.71L379.095 351.754L378.128 368.562L386.563 369.43Z" fill="#FFE600"/>
<path d="M412.291 338.36C411.607 338.259 411.023 337.926 410.541 337.363C410.101 336.765 409.908 336.141 409.962 335.493C410.015 334.845 410.303 334.313 410.826 333.898C411.393 333.448 412.018 333.274 412.702 333.375C413.346 333.47 413.889 333.796 414.331 334.354C414.774 334.911 414.967 335.535 414.91 336.224C414.853 336.913 414.563 337.465 414.041 337.88C413.518 338.295 412.934 338.455 412.291 338.36ZM409.361 345.742L413.706 346.383L411.194 376.841L406.849 376.2L409.361 345.742Z" fill="#FFE600"/>
<path d="M426.004 371.349C426.007 372.875 426.624 374.187 427.854 375.283C429.088 376.339 430.605 377.035 432.404 377.372C434.043 377.679 435.522 377.564 436.841 377.028C438.205 376.458 438.969 375.385 439.134 373.808C439.249 372.716 439.024 371.746 438.461 370.898C437.937 370.058 437.217 369.345 436.3 368.761C435.427 368.144 434.201 367.399 432.621 366.526C430.735 365.472 429.219 364.569 428.075 363.819C426.975 363.036 426.021 362.032 425.211 360.808C424.442 359.592 424.044 358.136 424.018 356.44L424.034 355.701C424.174 354.366 424.669 353.139 425.519 352.02C426.414 350.868 427.663 350.03 429.267 349.506C430.91 348.989 432.891 348.947 435.21 349.381C436.489 349.621 437.593 349.972 438.523 350.435C439.497 350.865 440.249 351.273 440.779 351.661C441.309 352.049 441.63 352.295 441.741 352.398L439.962 355.962C439.851 355.859 439.588 355.645 439.173 355.32C438.799 355.002 438.223 354.667 437.445 354.315C436.67 353.923 435.784 353.633 434.785 353.446C432.906 353.094 431.382 353.242 430.214 353.889C429.046 354.537 428.466 355.603 428.474 357.089C428.479 358.204 428.968 359.182 429.939 360.024C430.955 360.832 432.502 361.823 434.58 362.996C436.623 364.121 438.267 365.15 439.514 366.085C440.806 366.986 441.846 368.15 442.634 369.576C443.466 370.969 443.779 372.657 443.571 374.639C443.309 377.146 442.19 379.081 440.213 380.443C438.241 381.764 435.496 382.096 431.979 381.437C429.7 381.01 427.762 380.256 426.163 379.173C424.609 378.057 423.46 376.769 422.716 375.31C422.012 373.859 421.703 372.337 421.788 370.745L426.004 371.349Z" fill="#FFE600"/>
<path d="M455.44 386.405C452.964 385.342 451.264 383.958 450.338 382.253C449.413 380.547 449.107 378.464 449.421 376.004L453.798 341.633L458.14 342.623L456.606 354.665L463.267 356.183L461.316 359.973L456.082 358.779L453.762 376.993C453.398 379.858 454.517 381.96 457.121 383.301L455.44 386.405Z" fill="#FFE600"/>
<path d="M471.469 358.292L475.596 359.386L475.364 360.955C477.42 360.037 479.705 359.912 482.221 360.579C483.479 360.913 484.982 361.521 486.731 362.402L485.062 366.224C483.948 365.469 482.742 364.919 481.445 364.575C479.716 364.116 478.185 364.108 476.853 364.549C475.527 364.95 474.76 365.854 474.552 367.262L471.235 389.649L466.989 388.523L471.469 358.292Z" fill="#FFE600"/>
<path d="M514.095 390.941C513.505 394.306 512.124 396.81 509.953 398.452C507.782 400.095 504.892 400.35 501.284 399.217C497.676 398.084 495.133 396.124 493.657 393.337C492.227 390.521 491.804 387.451 492.387 384.126L493.777 376.195C494.445 372.39 495.885 369.778 498.099 368.36C500.358 366.914 503.253 366.745 506.784 367.854C510.16 368.914 512.612 370.803 514.141 373.523C515.677 376.203 516.125 379.365 515.486 383.01L514.095 390.941ZM511.295 381.695C512.188 376.608 510.441 373.376 506.057 372C504.001 371.354 502.246 371.437 500.794 372.249C499.381 373.073 498.438 374.827 497.968 377.511L496.472 386.043C496.092 388.206 496.392 390.117 497.37 391.776C498.393 393.408 499.934 394.546 501.99 395.192C504.046 395.837 505.765 395.722 507.147 394.846C508.536 393.929 509.42 392.39 509.799 390.227L511.295 381.695Z" fill="#FFE600"/>
</g>
<defs>
<clipPath id="clip0">
<rect width="650" height="650" fill="white"/>
</clipPath>
</defs>
</svg>
