<svg width="650" height="650" viewBox="0 0 650 650" fill="none" xmlns="http://www.w3.org/2000/svg">
<g clip-path="url(#clip0)">
<path d="M310.484 649L317.742 509.806C317.847 507.517 317.438 505.234 316.544 503.124C315.65 501.014 314.295 499.131 312.577 497.614C310.859 496.098 308.823 494.986 306.618 494.36C304.414 493.735 302.097 493.612 299.839 494L161.29 518.355L180 466.742C180.759 464.688 180.856 462.448 180.278 460.337C179.699 458.225 178.474 456.348 176.774 454.968L25 332.065L59.1935 316.097C61.5029 315.005 63.3344 313.109 64.3442 310.762C65.3539 308.416 65.4724 305.782 64.6774 303.355L34.6774 211.097L122.097 229.645C124.465 230.139 126.931 229.798 129.077 228.681C131.223 227.564 132.917 225.739 133.871 223.516L150.806 183.677L219.032 256.903C220.592 258.549 222.644 259.644 224.879 260.025C227.114 260.406 229.412 260.052 231.429 259.016C233.446 257.98 235.073 256.319 236.066 254.28C237.059 252.242 237.364 249.936 236.935 247.71L204.032 78.0323L256.774 108.516C258.012 109.242 259.387 109.706 260.811 109.879C262.236 110.052 263.681 109.93 265.057 109.522C266.433 109.114 267.711 108.427 268.811 107.505C269.911 106.583 270.81 105.445 271.452 104.161L325 -1L378.548 104.161C379.19 105.445 380.089 106.583 381.189 107.505C382.289 108.427 383.567 109.114 384.943 109.522C386.319 109.93 387.764 110.052 389.189 109.879C390.613 109.706 391.988 109.242 393.226 108.516L445.968 78.0323L413.065 247.71C412.636 249.936 412.941 252.242 413.934 254.28C414.927 256.319 416.553 257.98 418.57 259.016C420.588 260.052 422.886 260.406 425.121 260.025C427.356 259.644 429.408 258.549 430.968 256.903L499.194 183.677L516.129 223.516C517.083 225.739 518.777 227.564 520.923 228.681C523.069 229.798 525.535 230.139 527.903 229.645L615.323 211.097L585.323 303.355C584.528 305.782 584.646 308.416 585.656 310.762C586.666 313.109 588.497 315.005 590.806 316.097L625 332.065L473.226 454.968C471.526 456.348 470.301 458.225 469.722 460.337C469.144 462.448 469.241 464.688 470 466.742L488.71 518.355L350.161 494C347.903 493.612 345.586 493.735 343.382 494.36C341.177 494.986 339.141 496.098 337.423 497.614C335.705 499.131 334.35 501.014 333.456 503.124C332.562 505.234 332.153 507.517 332.258 509.806L339.516 649H310.484Z" fill="#B12020"/>
<path d="M124.88 379.36C120.72 379.36 118.64 377.573 118.64 374C118.64 372.827 118.8 371.493 119.12 370C119.493 368.453 120 366.48 120.64 364.08C121.387 361.573 121.947 359.44 122.32 357.68C122.693 355.92 122.88 354.347 122.88 352.96C122.88 349.333 121.28 347.52 118.08 347.52C117.227 347.52 116.347 347.627 115.44 347.84L109.04 378H97.52L108.4 327.12L120.24 325.52L116.32 344H116.96C119.04 344 120.96 343.28 122.72 341.84C124.48 340.4 125.84 338.613 126.8 336.48C127.813 334.293 128.32 332.16 128.32 330.08C128.32 327.627 127.573 325.627 126.08 324.08C124.64 322.48 122.453 321.68 119.52 321.68C115.2 321.68 111.413 322.453 108.16 324C104.907 325.547 102.373 327.787 100.56 330.72C98.8 333.653 97.92 337.12 97.92 341.12C97.92 343.093 98.1067 344.48 98.48 345.28C98.8533 346.027 99.04 346.453 99.04 346.56C96.16 346.56 94 345.973 92.56 344.8C91.1733 343.573 90.48 341.573 90.48 338.8C90.48 335.387 91.8667 332.08 94.64 328.88C97.4667 325.627 101.067 323.013 105.44 321.04C109.813 319.013 114.187 318 118.56 318C122.56 318 125.92 318.587 128.64 319.76C131.36 320.933 133.387 322.507 134.72 324.48C136.053 326.4 136.72 328.507 136.72 330.8C136.72 333.307 135.947 335.813 134.4 338.32C132.853 340.827 130.747 342.88 128.08 344.48C130.107 345.067 131.52 346.053 132.32 347.44C133.173 348.773 133.6 350.453 133.6 352.48C133.6 354.027 133.413 355.68 133.04 357.44C132.667 359.147 132.133 361.28 131.44 363.84C131.013 365.493 130.613 367.12 130.24 368.72C129.867 370.32 129.68 371.653 129.68 372.72C129.68 373.947 129.947 375.04 130.48 376C131.067 376.96 131.84 377.627 132.8 378C129.547 378.907 126.907 379.36 124.88 379.36ZM149.487 378.48C145.54 378.48 142.474 377.467 140.287 375.44C138.1 373.36 137.007 370.133 137.007 365.76C137.007 362.08 137.727 358.027 139.167 353.6C140.607 349.173 142.954 345.36 146.207 342.16C149.46 338.907 153.594 337.28 158.607 337.28C164.474 337.28 167.407 339.84 167.407 344.96C167.407 347.947 166.554 350.693 164.847 353.2C163.14 355.707 160.874 357.733 158.047 359.28C155.22 360.773 152.207 361.627 149.007 361.84C148.9 363.44 148.847 364.507 148.847 365.04C148.847 367.653 149.3 369.44 150.207 370.4C151.114 371.307 152.58 371.76 154.607 371.76C157.487 371.76 159.94 371.093 161.967 369.76C164.047 368.427 166.314 366.4 168.767 363.68H171.487C165.567 373.547 158.234 378.48 149.487 378.48ZM149.647 358C151.62 357.893 153.487 357.2 155.247 355.92C157.06 354.64 158.5 353.013 159.567 351.04C160.687 349.067 161.247 346.987 161.247 344.8C161.247 342.613 160.58 341.52 159.247 341.52C157.327 341.52 155.434 343.2 153.567 346.56C151.754 349.92 150.447 353.733 149.647 358ZM178.35 378.48C175.31 378.48 172.777 377.44 170.75 375.36C168.723 373.28 167.71 370.027 167.71 365.6C167.71 361.653 168.483 357.52 170.03 353.2C171.63 348.827 173.977 345.147 177.07 342.16C180.217 339.12 183.95 337.6 188.27 337.6C190.457 337.6 192.083 337.973 193.15 338.72C194.217 339.467 194.75 340.453 194.75 341.68V342L198.67 323.6L210.51 322L201.31 365.2C201.097 366 200.99 366.773 200.99 367.52C200.99 369.653 202.083 370.72 204.27 370.72C205.23 370.72 206.083 370.56 206.83 370.24C206.617 372.907 205.657 374.96 203.95 376.4C202.297 377.787 200.323 378.48 198.03 378.48C195.897 378.48 194.083 377.947 192.59 376.88C191.15 375.76 190.19 374.08 189.71 371.84C186.51 376.267 182.723 378.48 178.35 378.48ZM183.55 370.72C184.723 370.72 185.897 370.213 187.07 369.2C188.297 368.187 189.203 366.773 189.79 364.96L190.11 363.68L194.03 345.36C193.55 343.493 192.457 342.56 190.75 342.56C188.617 342.56 186.697 343.813 184.99 346.32C183.283 348.773 181.95 351.76 180.99 355.28C180.03 358.747 179.55 361.813 179.55 364.48C179.55 367.147 179.923 368.853 180.67 369.6C181.47 370.347 182.43 370.72 183.55 370.72ZM268.861 398C266.461 398 264.087 397.307 261.741 395.92C259.447 394.587 256.514 392.507 252.941 389.68C250.274 387.547 247.981 385.813 246.061 384.48C244.194 383.2 242.141 382.107 239.901 381.2C237.714 380.293 235.474 379.84 233.181 379.84C232.381 379.84 231.767 379.867 231.341 379.92L243.261 324.48C239.687 325.92 236.914 328.133 234.941 331.12C233.021 334.053 232.061 337.653 232.061 341.92C232.061 343.893 232.247 345.28 232.621 346.08C232.994 346.827 233.181 347.253 233.181 347.36C230.301 347.36 228.141 346.773 226.701 345.6C225.314 344.373 224.621 342.373 224.621 339.6C224.621 336.187 226.007 332.88 228.781 329.68C231.607 326.427 235.207 323.813 239.581 321.84C243.954 319.813 248.327 318.8 252.701 318.8C253.447 318.8 254.514 318.853 255.901 318.96L243.581 376.4C245.074 376.773 246.594 377.307 248.141 378C249.741 378.747 251.661 379.733 253.901 380.96C257.367 382.827 260.327 384.24 262.781 385.2C265.234 386.213 267.794 386.72 270.461 386.72C272.861 386.72 275.101 386.293 277.181 385.44C276.754 389.333 275.794 392.4 274.301 394.64C272.861 396.88 271.047 398 268.861 398ZM265.893 378.48C261.946 378.48 258.88 377.467 256.693 375.44C254.506 373.36 253.413 370.133 253.413 365.76C253.413 362.08 254.133 358.027 255.573 353.6C257.013 349.173 259.36 345.36 262.613 342.16C265.866 338.907 270 337.28 275.013 337.28C280.88 337.28 283.813 339.84 283.813 344.96C283.813 347.947 282.96 350.693 281.253 353.2C279.546 355.707 277.28 357.733 274.453 359.28C271.626 360.773 268.613 361.627 265.413 361.84C265.306 363.44 265.253 364.507 265.253 365.04C265.253 367.653 265.706 369.44 266.613 370.4C267.52 371.307 268.986 371.76 271.013 371.76C273.893 371.76 276.346 371.093 278.373 369.76C280.453 368.427 282.72 366.4 285.173 363.68H287.893C281.973 373.547 274.64 378.48 265.893 378.48ZM266.053 358C268.026 357.893 269.893 357.2 271.653 355.92C273.466 354.64 274.906 353.013 275.973 351.04C277.093 349.067 277.653 346.987 277.653 344.8C277.653 342.613 276.986 341.52 275.653 341.52C273.733 341.52 271.84 343.2 269.973 346.56C268.16 349.92 266.853 353.733 266.053 358ZM294.756 378.48C291.716 378.48 289.183 377.44 287.156 375.36C285.13 373.28 284.116 370.027 284.116 365.6C284.116 361.653 284.89 357.52 286.436 353.2C288.036 348.827 290.383 345.147 293.476 342.16C296.623 339.12 300.356 337.6 304.676 337.6C306.863 337.6 308.49 337.973 309.556 338.72C310.623 339.467 311.156 340.453 311.156 341.68V342.24L312.036 338H323.556L317.796 365.2C317.583 366 317.476 366.853 317.476 367.76C317.476 370.053 318.57 371.2 320.756 371.2C322.25 371.2 323.53 370.507 324.596 369.12C325.716 367.733 326.596 365.92 327.236 363.68H330.596C328.623 369.44 326.17 373.36 323.236 375.44C320.356 377.467 317.45 378.48 314.516 378.48C312.276 378.48 310.463 377.867 309.076 376.64C307.743 375.36 306.943 373.52 306.676 371.12C305.13 373.307 303.396 375.093 301.476 376.48C299.61 377.813 297.37 378.48 294.756 378.48ZM299.956 370.72C301.29 370.72 302.596 370.107 303.876 368.88C305.21 367.6 306.116 365.867 306.596 363.68L310.436 345.6C310.436 344.907 310.17 344.24 309.636 343.6C309.103 342.907 308.276 342.56 307.156 342.56C305.023 342.56 303.103 343.813 301.396 346.32C299.69 348.773 298.356 351.76 297.396 355.28C296.436 358.747 295.956 361.813 295.956 364.48C295.956 367.147 296.33 368.853 297.076 369.6C297.876 370.347 298.836 370.72 299.956 370.72ZM320.066 398C317.559 398 315.372 397.173 313.506 395.52C311.586 393.92 310.626 391.867 310.626 389.36C310.626 387.067 311.212 385.173 312.386 383.68C313.559 382.187 315.079 380.987 316.946 380.08C318.812 379.227 321.292 378.32 324.386 377.36L334.066 331.68C335.132 326.56 336.999 323.013 339.666 321.04C342.386 319.067 345.372 318.08 348.626 318.08C351.132 318.08 353.319 318.907 355.186 320.56C357.106 322.16 358.066 324.213 358.066 326.72C358.066 327.947 357.986 329.04 357.826 330H354.066C354.172 328.827 354.226 328.107 354.226 327.84C354.226 326.987 353.932 326.32 353.346 325.84C352.759 325.36 352.039 325.12 351.186 325.12C350.066 325.12 348.972 325.627 347.906 326.64C346.839 327.6 346.066 329.28 345.586 331.68L344.226 338H350.066L349.506 341.2H343.586L334.386 384.4C333.319 389.573 331.479 393.12 328.866 395.04C326.252 397.013 323.319 398 320.066 398ZM318.226 390.88C320.359 390.88 321.879 388.8 322.786 384.64L323.826 380C320.999 380.96 318.839 382.053 317.346 383.28C315.799 384.56 315.026 386.213 315.026 388.24C315.026 388.88 315.346 389.467 315.986 390C316.626 390.587 317.372 390.88 318.226 390.88ZM396.898 379.36C394.764 379.36 392.898 378.907 391.298 378C389.751 377.147 388.978 375.627 388.978 373.44C388.978 372.053 389.324 370.507 390.018 368.8C390.978 369.867 391.858 370.613 392.658 371.04C393.511 371.467 394.418 371.68 395.378 371.68C398.044 371.68 400.018 370.187 401.298 367.2C402.631 364.213 403.298 360.907 403.298 357.28C403.298 350.507 400.764 347.12 395.698 347.12C394.258 347.12 393.031 347.2 392.018 347.36L385.458 378H373.938L384.818 327.12L396.658 325.52L392.898 343.28H393.378C395.404 343.28 397.298 342.64 399.058 341.36C400.818 340.027 402.231 338.373 403.298 336.4C404.364 334.373 404.898 332.347 404.898 330.32C404.898 327.867 404.018 325.813 402.258 324.16C400.551 322.507 397.911 321.68 394.338 321.68C391.084 321.68 387.911 322.427 384.818 323.92C381.724 325.36 379.191 327.547 377.218 330.48C375.298 333.413 374.338 336.96 374.338 341.12C374.338 343.093 374.524 344.48 374.898 345.28C375.271 346.027 375.458 346.453 375.458 346.56C372.631 346.56 370.498 346 369.058 344.88C367.618 343.707 366.898 341.813 366.898 339.2C366.898 335.573 368.258 332.133 370.978 328.88C373.698 325.627 377.298 323.013 381.778 321.04C386.258 319.013 390.978 318 395.938 318C399.671 318 402.818 318.587 405.378 319.76C407.938 320.933 409.831 322.48 411.058 324.4C412.338 326.32 412.977 328.427 412.977 330.72C412.977 333.173 412.284 335.547 410.898 337.84C409.511 340.133 407.538 342 404.978 343.44C408.178 344.027 410.551 345.52 412.098 347.92C413.644 350.267 414.418 353.067 414.418 356.32C414.418 359.36 413.831 362.667 412.658 366.24C411.538 369.813 409.644 372.907 406.978 375.52C404.364 378.08 401.004 379.36 396.898 379.36ZM430.548 333.68C428.788 333.68 427.294 333.067 426.068 331.84C424.841 330.613 424.228 329.12 424.228 327.36C424.228 325.6 424.841 324.107 426.068 322.88C427.294 321.6 428.788 320.96 430.548 320.96C432.308 320.96 433.801 321.6 435.028 322.88C436.308 324.107 436.948 325.6 436.948 327.36C436.948 329.12 436.308 330.613 435.028 331.84C433.801 333.067 432.308 333.68 430.548 333.68ZM425.108 378.48C422.548 378.48 420.468 377.68 418.868 376.08C417.321 374.48 416.547 372.08 416.547 368.88C416.547 367.547 416.761 365.813 417.188 363.68L422.628 338H434.148L428.388 365.2C428.174 366 428.068 366.853 428.068 367.76C428.068 368.827 428.308 369.6 428.788 370.08C429.321 370.507 430.174 370.72 431.348 370.72C432.894 370.72 434.334 370.08 435.668 368.8C437.001 367.467 437.961 365.76 438.548 363.68H441.908C439.934 369.44 437.401 373.36 434.308 375.44C431.214 377.467 428.148 378.48 425.108 378.48ZM447.636 378.48C445.076 378.48 442.916 378 441.156 377.04C439.396 376.027 438.089 374.747 437.236 373.2C436.382 371.6 435.956 369.947 435.956 368.24C435.956 366.48 436.382 364.96 437.236 363.68C438.036 362.347 439.022 361.387 440.196 360.8C442.276 357.067 444.089 353.307 445.636 349.52C447.182 345.68 448.649 341.547 450.036 337.12L461.876 335.52C462.142 342.347 462.596 349.733 463.236 357.68C463.502 360.88 463.636 363.2 463.636 364.64C463.636 365.867 463.529 366.88 463.316 367.68C465.822 366.24 467.742 364.907 469.076 363.68H472.436C469.022 367.627 464.942 370.96 460.196 373.68C458.649 375.333 456.729 376.56 454.436 377.36C452.196 378.107 449.929 378.48 447.636 378.48ZM445.076 372.16C447.049 372.16 448.702 371.573 450.036 370.4C451.369 369.227 452.036 367.333 452.036 364.72C452.036 363.12 451.876 360.88 451.556 358C451.022 351.92 450.676 347.84 450.516 345.76C449.236 349.973 447.076 355.013 444.036 360.88C445.262 361.52 445.876 362.453 445.876 363.68C445.876 364.693 445.529 365.6 444.836 366.4C444.196 367.2 443.369 367.6 442.356 367.6C441.236 367.6 440.516 367.253 440.196 366.56C440.196 368.48 440.569 369.893 441.316 370.8C442.116 371.707 443.369 372.16 445.076 372.16ZM476.983 378.48C474.423 378.48 472.343 377.68 470.743 376.08C469.196 374.48 468.422 372.08 468.422 368.88C468.422 367.547 468.636 365.813 469.062 363.68L473.863 341.2H471.223L471.863 338H474.503L476.903 326.96L488.743 325.36L486.023 338H490.823L490.182 341.2H485.383L480.263 365.2C480.049 366 479.943 366.853 479.943 367.76C479.943 368.827 480.183 369.6 480.663 370.08C481.196 370.507 482.049 370.72 483.223 370.72C484.769 370.72 486.209 370.08 487.543 368.8C488.876 367.467 489.836 365.76 490.423 363.68H493.783C491.809 369.44 489.276 373.36 486.183 375.44C483.089 377.467 480.023 378.48 476.983 378.48ZM495.831 338H507.351L506.311 342.96C508.124 341.36 509.751 340.133 511.191 339.28C512.684 338.427 514.284 338 515.991 338C517.697 338 519.031 338.587 519.991 339.76C521.004 340.933 521.511 342.347 521.511 344C521.511 345.547 521.004 346.907 519.991 348.08C518.977 349.253 517.564 349.84 515.751 349.84C514.577 349.84 513.777 349.573 513.351 349.04C512.977 348.453 512.684 347.627 512.471 346.56C512.311 345.867 512.151 345.36 511.991 345.04C511.831 344.72 511.537 344.56 511.111 344.56C509.991 344.56 509.031 344.8 508.231 345.28C507.484 345.707 506.497 346.48 505.271 347.6L498.871 378H487.351L495.831 338ZM532.149 378.32C528.202 378.32 525.082 377.307 522.789 375.28C520.495 373.253 519.349 370.053 519.349 365.68C519.349 362 520.069 357.973 521.509 353.6C522.949 349.173 525.295 345.36 528.549 342.16C531.802 338.907 535.962 337.28 541.029 337.28C547.322 337.28 550.709 340.88 551.189 348.08C552.362 347.813 553.402 347.173 554.309 346.16C555.215 345.093 556.069 343.893 556.869 342.56H559.429C557.989 345.44 556.709 347.707 555.589 349.36C554.469 350.96 553.002 352.267 551.189 353.28C550.869 358.293 549.829 362.693 548.069 366.48C546.362 370.267 544.122 373.2 541.349 375.28C538.575 377.307 535.509 378.32 532.149 378.32ZM535.349 371.12C537.322 371.12 539.162 369.52 540.869 366.32C542.575 363.12 543.749 359.173 544.389 354.48C543.109 354 542.469 352.8 542.469 350.88C542.469 348.8 543.215 347.413 544.709 346.72C544.602 345.013 544.309 343.84 543.829 343.2C543.402 342.507 542.682 342.16 541.669 342.16C539.909 342.16 538.229 343.44 536.629 346C535.029 348.507 533.722 351.573 532.709 355.2C531.749 358.773 531.269 361.92 531.269 364.64C531.269 367.2 531.562 368.933 532.149 369.84C532.735 370.693 533.802 371.12 535.349 371.12Z" fill="black"/>
</g>
<defs>
<clipPath id="clip0">
<rect width="650" height="650" fill="white"/>
</clipPath>
</defs>
</svg>
